<mxfile host="app.diagrams.net" agent="Mozilla/5.0 (Macintosh; Intel Mac OS X 10_15_7) AppleWebKit/537.36 (KHTML, like Gecko) Chrome/128.0.0.0 Safari/537.36" version="24.7.14">
  <diagram name="Page-1" id="5UMkAzWUIxxLxTI6kOtt">
    <mxGraphModel dx="1158" dy="701" grid="1" gridSize="10" guides="1" tooltips="1" connect="1" arrows="1" fold="1" page="1" pageScale="1" pageWidth="827" pageHeight="1169" math="0" shadow="0">
      <root>
        <mxCell id="0" />
        <mxCell id="1" parent="0" />
        <mxCell id="bEkGnUCjJTWDH3iZoQyt-36" style="edgeStyle=orthogonalEdgeStyle;rounded=0;orthogonalLoop=1;jettySize=auto;html=1;" edge="1" parent="1" source="bEkGnUCjJTWDH3iZoQyt-1" target="bEkGnUCjJTWDH3iZoQyt-29">
          <mxGeometry relative="1" as="geometry" />
        </mxCell>
        <mxCell id="bEkGnUCjJTWDH3iZoQyt-1" value="Article" style="rounded=0;whiteSpace=wrap;html=1;" vertex="1" parent="1">
          <mxGeometry x="90" y="240" width="120" height="80" as="geometry" />
        </mxCell>
        <mxCell id="bEkGnUCjJTWDH3iZoQyt-64" style="edgeStyle=orthogonalEdgeStyle;rounded=0;orthogonalLoop=1;jettySize=auto;html=1;entryX=0.5;entryY=0;entryDx=0;entryDy=0;" edge="1" parent="1" source="bEkGnUCjJTWDH3iZoQyt-20" target="bEkGnUCjJTWDH3iZoQyt-31">
          <mxGeometry relative="1" as="geometry" />
        </mxCell>
        <mxCell id="bEkGnUCjJTWDH3iZoQyt-20" value="News Outlet 1" style="rounded=0;whiteSpace=wrap;html=1;fillColor=none;" vertex="1" parent="1">
          <mxGeometry x="160" width="120" height="80" as="geometry" />
        </mxCell>
        <mxCell id="bEkGnUCjJTWDH3iZoQyt-27" style="edgeStyle=orthogonalEdgeStyle;rounded=0;orthogonalLoop=1;jettySize=auto;html=1;" edge="1" parent="1" target="bEkGnUCjJTWDH3iZoQyt-23">
          <mxGeometry relative="1" as="geometry">
            <mxPoint x="580" y="80" as="sourcePoint" />
          </mxGeometry>
        </mxCell>
        <mxCell id="bEkGnUCjJTWDH3iZoQyt-28" style="edgeStyle=orthogonalEdgeStyle;rounded=0;orthogonalLoop=1;jettySize=auto;html=1;" edge="1" parent="1" target="bEkGnUCjJTWDH3iZoQyt-24">
          <mxGeometry relative="1" as="geometry">
            <mxPoint x="580" y="80" as="sourcePoint" />
          </mxGeometry>
        </mxCell>
        <mxCell id="bEkGnUCjJTWDH3iZoQyt-51" style="edgeStyle=orthogonalEdgeStyle;rounded=0;orthogonalLoop=1;jettySize=auto;html=1;" edge="1" parent="1" source="bEkGnUCjJTWDH3iZoQyt-29" target="bEkGnUCjJTWDH3iZoQyt-44">
          <mxGeometry relative="1" as="geometry" />
        </mxCell>
        <mxCell id="bEkGnUCjJTWDH3iZoQyt-29" value="Document&lt;div&gt;Processing Component&lt;/div&gt;" style="rounded=1;whiteSpace=wrap;html=1;" vertex="1" parent="1">
          <mxGeometry x="160" y="360" width="120" height="80" as="geometry" />
        </mxCell>
        <mxCell id="bEkGnUCjJTWDH3iZoQyt-33" style="edgeStyle=orthogonalEdgeStyle;rounded=0;orthogonalLoop=1;jettySize=auto;html=1;" edge="1" parent="1" source="bEkGnUCjJTWDH3iZoQyt-31" target="bEkGnUCjJTWDH3iZoQyt-1">
          <mxGeometry relative="1" as="geometry" />
        </mxCell>
        <mxCell id="bEkGnUCjJTWDH3iZoQyt-34" style="edgeStyle=orthogonalEdgeStyle;rounded=0;orthogonalLoop=1;jettySize=auto;html=1;" edge="1" parent="1" source="bEkGnUCjJTWDH3iZoQyt-31" target="bEkGnUCjJTWDH3iZoQyt-20">
          <mxGeometry relative="1" as="geometry" />
        </mxCell>
        <mxCell id="bEkGnUCjJTWDH3iZoQyt-31" value="Scraper Component" style="rounded=1;whiteSpace=wrap;html=1;fillColor=none;" vertex="1" parent="1">
          <mxGeometry x="160" y="120" width="120" height="80" as="geometry" />
        </mxCell>
        <mxCell id="bEkGnUCjJTWDH3iZoQyt-46" style="edgeStyle=orthogonalEdgeStyle;rounded=0;orthogonalLoop=1;jettySize=auto;html=1;" edge="1" parent="1" source="bEkGnUCjJTWDH3iZoQyt-38" target="bEkGnUCjJTWDH3iZoQyt-41">
          <mxGeometry relative="1" as="geometry" />
        </mxCell>
        <mxCell id="bEkGnUCjJTWDH3iZoQyt-38" value="Full LLM Read with Awareness &amp;amp; Observation Prompt&lt;div&gt;+ Metadata&lt;/div&gt;" style="rounded=1;whiteSpace=wrap;html=1;" vertex="1" parent="1">
          <mxGeometry x="40" y="960" width="120" height="80" as="geometry" />
        </mxCell>
        <mxCell id="bEkGnUCjJTWDH3iZoQyt-57" style="edgeStyle=orthogonalEdgeStyle;rounded=0;orthogonalLoop=1;jettySize=auto;html=1;entryX=0.5;entryY=0;entryDx=0;entryDy=0;" edge="1" parent="1" source="bEkGnUCjJTWDH3iZoQyt-39" target="bEkGnUCjJTWDH3iZoQyt-42">
          <mxGeometry relative="1" as="geometry" />
        </mxCell>
        <mxCell id="bEkGnUCjJTWDH3iZoQyt-39" value="Sparse Vectors for Fulltext Search with Multilingual Capacity" style="rounded=1;whiteSpace=wrap;html=1;" vertex="1" parent="1">
          <mxGeometry x="210" y="840" width="120" height="80" as="geometry" />
        </mxCell>
        <mxCell id="bEkGnUCjJTWDH3iZoQyt-56" style="edgeStyle=orthogonalEdgeStyle;rounded=0;orthogonalLoop=1;jettySize=auto;html=1;" edge="1" parent="1" source="bEkGnUCjJTWDH3iZoQyt-40" target="bEkGnUCjJTWDH3iZoQyt-43">
          <mxGeometry relative="1" as="geometry" />
        </mxCell>
        <mxCell id="bEkGnUCjJTWDH3iZoQyt-40" value="Multilingual embeddings for Cosine Similarity" style="rounded=1;whiteSpace=wrap;html=1;" vertex="1" parent="1">
          <mxGeometry x="353" y="840" width="120" height="80" as="geometry" />
        </mxCell>
        <mxCell id="bEkGnUCjJTWDH3iZoQyt-74" style="edgeStyle=orthogonalEdgeStyle;rounded=0;orthogonalLoop=1;jettySize=auto;html=1;" edge="1" parent="1" source="bEkGnUCjJTWDH3iZoQyt-41" target="bEkGnUCjJTWDH3iZoQyt-59">
          <mxGeometry relative="1" as="geometry" />
        </mxCell>
        <mxCell id="bEkGnUCjJTWDH3iZoQyt-41" value="LLM Outputs isPresent/notPresent + Relevant Article Parts" style="rounded=1;whiteSpace=wrap;html=1;" vertex="1" parent="1">
          <mxGeometry x="40" y="1080" width="120" height="80" as="geometry" />
        </mxCell>
        <mxCell id="bEkGnUCjJTWDH3iZoQyt-69" style="edgeStyle=orthogonalEdgeStyle;rounded=0;orthogonalLoop=1;jettySize=auto;html=1;" edge="1" parent="1" source="bEkGnUCjJTWDH3iZoQyt-42" target="bEkGnUCjJTWDH3iZoQyt-65">
          <mxGeometry relative="1" as="geometry" />
        </mxCell>
        <mxCell id="bEkGnUCjJTWDH3iZoQyt-42" value="Keyword Search&amp;nbsp;" style="rounded=1;whiteSpace=wrap;html=1;" vertex="1" parent="1">
          <mxGeometry x="210" y="960" width="120" height="80" as="geometry" />
        </mxCell>
        <mxCell id="bEkGnUCjJTWDH3iZoQyt-70" style="edgeStyle=orthogonalEdgeStyle;rounded=0;orthogonalLoop=1;jettySize=auto;html=1;" edge="1" parent="1" source="bEkGnUCjJTWDH3iZoQyt-43" target="bEkGnUCjJTWDH3iZoQyt-66">
          <mxGeometry relative="1" as="geometry" />
        </mxCell>
        <mxCell id="bEkGnUCjJTWDH3iZoQyt-43" value="Cosine Similarity Search" style="rounded=1;whiteSpace=wrap;html=1;" vertex="1" parent="1">
          <mxGeometry x="353" y="960" width="120" height="80" as="geometry" />
        </mxCell>
        <mxCell id="bEkGnUCjJTWDH3iZoQyt-45" style="edgeStyle=orthogonalEdgeStyle;rounded=0;orthogonalLoop=1;jettySize=auto;html=1;" edge="1" parent="1" source="bEkGnUCjJTWDH3iZoQyt-44" target="bEkGnUCjJTWDH3iZoQyt-38">
          <mxGeometry relative="1" as="geometry">
            <Array as="points">
              <mxPoint x="220" y="580" />
              <mxPoint x="100" y="580" />
            </Array>
          </mxGeometry>
        </mxCell>
        <mxCell id="bEkGnUCjJTWDH3iZoQyt-48" style="edgeStyle=orthogonalEdgeStyle;rounded=0;orthogonalLoop=1;jettySize=auto;html=1;" edge="1" parent="1" source="bEkGnUCjJTWDH3iZoQyt-44" target="bEkGnUCjJTWDH3iZoQyt-47">
          <mxGeometry relative="1" as="geometry" />
        </mxCell>
        <mxCell id="bEkGnUCjJTWDH3iZoQyt-44" value="Full Article in Markdown&lt;div&gt;+ Metadata&lt;br&gt;&lt;/div&gt;" style="rounded=0;whiteSpace=wrap;html=1;" vertex="1" parent="1">
          <mxGeometry x="160" y="480" width="120" height="80" as="geometry" />
        </mxCell>
        <mxCell id="bEkGnUCjJTWDH3iZoQyt-53" style="edgeStyle=orthogonalEdgeStyle;rounded=0;orthogonalLoop=1;jettySize=auto;html=1;" edge="1" parent="1" source="bEkGnUCjJTWDH3iZoQyt-47" target="bEkGnUCjJTWDH3iZoQyt-52">
          <mxGeometry relative="1" as="geometry" />
        </mxCell>
        <mxCell id="bEkGnUCjJTWDH3iZoQyt-47" value="Structure-based Chunking&lt;div&gt;+ Metadata&lt;br&gt;&lt;/div&gt;" style="rounded=1;whiteSpace=wrap;html=1;" vertex="1" parent="1">
          <mxGeometry x="280" y="600" width="120" height="80" as="geometry" />
        </mxCell>
        <mxCell id="bEkGnUCjJTWDH3iZoQyt-54" style="edgeStyle=orthogonalEdgeStyle;rounded=0;orthogonalLoop=1;jettySize=auto;html=1;" edge="1" parent="1" source="bEkGnUCjJTWDH3iZoQyt-52" target="bEkGnUCjJTWDH3iZoQyt-39">
          <mxGeometry relative="1" as="geometry" />
        </mxCell>
        <mxCell id="bEkGnUCjJTWDH3iZoQyt-55" style="edgeStyle=orthogonalEdgeStyle;rounded=0;orthogonalLoop=1;jettySize=auto;html=1;" edge="1" parent="1" source="bEkGnUCjJTWDH3iZoQyt-52" target="bEkGnUCjJTWDH3iZoQyt-40">
          <mxGeometry relative="1" as="geometry" />
        </mxCell>
        <mxCell id="bEkGnUCjJTWDH3iZoQyt-52" value="Chunk from Article" style="rounded=1;whiteSpace=wrap;html=1;" vertex="1" parent="1">
          <mxGeometry x="280" y="710" width="120" height="80" as="geometry" />
        </mxCell>
        <mxCell id="bEkGnUCjJTWDH3iZoQyt-58" value="Article rating&lt;br&gt;isInteresting or notInteresting&lt;div&gt;+ Relevant Part/s&lt;/div&gt;" style="rounded=0;whiteSpace=wrap;html=1;" vertex="1" parent="1">
          <mxGeometry x="160" y="1340" width="120" height="80" as="geometry" />
        </mxCell>
        <mxCell id="bEkGnUCjJTWDH3iZoQyt-60" style="edgeStyle=orthogonalEdgeStyle;rounded=0;orthogonalLoop=1;jettySize=auto;html=1;" edge="1" parent="1" source="bEkGnUCjJTWDH3iZoQyt-59" target="bEkGnUCjJTWDH3iZoQyt-58">
          <mxGeometry relative="1" as="geometry" />
        </mxCell>
        <mxCell id="bEkGnUCjJTWDH3iZoQyt-59" value="Weighted Rating Component" style="rounded=1;whiteSpace=wrap;html=1;" vertex="1" parent="1">
          <mxGeometry x="160" y="1220" width="120" height="80" as="geometry" />
        </mxCell>
        <mxCell id="bEkGnUCjJTWDH3iZoQyt-72" style="edgeStyle=orthogonalEdgeStyle;rounded=0;orthogonalLoop=1;jettySize=auto;html=1;" edge="1" parent="1" source="bEkGnUCjJTWDH3iZoQyt-65" target="bEkGnUCjJTWDH3iZoQyt-59">
          <mxGeometry relative="1" as="geometry" />
        </mxCell>
        <mxCell id="bEkGnUCjJTWDH3iZoQyt-65" value="&lt;div&gt;&lt;span style=&quot;background-color: initial;&quot;&gt;Relevant Keywords within Article&lt;/span&gt;&lt;br&gt;&lt;/div&gt;" style="rounded=1;whiteSpace=wrap;html=1;" vertex="1" parent="1">
          <mxGeometry x="210" y="1080" width="120" height="80" as="geometry" />
        </mxCell>
        <mxCell id="bEkGnUCjJTWDH3iZoQyt-73" style="edgeStyle=orthogonalEdgeStyle;rounded=0;orthogonalLoop=1;jettySize=auto;html=1;" edge="1" parent="1" source="bEkGnUCjJTWDH3iZoQyt-66" target="bEkGnUCjJTWDH3iZoQyt-59">
          <mxGeometry relative="1" as="geometry">
            <Array as="points">
              <mxPoint x="413" y="1190" />
              <mxPoint x="220" y="1190" />
            </Array>
          </mxGeometry>
        </mxCell>
        <mxCell id="bEkGnUCjJTWDH3iZoQyt-66" value="Relevant Chunks within Article" style="rounded=1;whiteSpace=wrap;html=1;" vertex="1" parent="1">
          <mxGeometry x="353" y="1080" width="120" height="80" as="geometry" />
        </mxCell>
        <mxCell id="bEkGnUCjJTWDH3iZoQyt-77" style="edgeStyle=orthogonalEdgeStyle;rounded=0;orthogonalLoop=1;jettySize=auto;html=1;" edge="1" parent="1" source="bEkGnUCjJTWDH3iZoQyt-75" target="bEkGnUCjJTWDH3iZoQyt-29">
          <mxGeometry relative="1" as="geometry" />
        </mxCell>
        <mxCell id="bEkGnUCjJTWDH3iZoQyt-75" value="Article" style="rounded=0;whiteSpace=wrap;html=1;" vertex="1" parent="1">
          <mxGeometry x="240" y="240" width="120" height="80" as="geometry" />
        </mxCell>
        <mxCell id="bEkGnUCjJTWDH3iZoQyt-78" style="edgeStyle=orthogonalEdgeStyle;rounded=0;orthogonalLoop=1;jettySize=auto;html=1;" edge="1" parent="1" source="bEkGnUCjJTWDH3iZoQyt-76" target="bEkGnUCjJTWDH3iZoQyt-29">
          <mxGeometry relative="1" as="geometry">
            <Array as="points">
              <mxPoint x="460" y="340" />
              <mxPoint x="220" y="340" />
            </Array>
          </mxGeometry>
        </mxCell>
        <mxCell id="bEkGnUCjJTWDH3iZoQyt-76" value="Article" style="rounded=0;whiteSpace=wrap;html=1;" vertex="1" parent="1">
          <mxGeometry x="400" y="240" width="120" height="80" as="geometry" />
        </mxCell>
      </root>
    </mxGraphModel>
  </diagram>
</mxfile>
